{"accessors":[{"bufferView":0,"byteOffset":0,"componentType":5126,"count":51200,"max":[100.75,100.75,2.0],"min":[-100.75,-100.75,-2.0],"type":"VEC3"},{"bufferView":1,"byteOffset":0,"componentType":5126,"count":51200,"normalized":false,"type":"VEC2"},{"bufferView":2,"byteOffset":0,"componentType":5125,"count":230400,"type":"SCALAR"},{"bufferView":4,"byteOffset":0,"componentType":5126,"count":348,"max":[67.70227099039572,37.552574138641674,10.0],"min":[-91.78469208405943,-88.93730321841073,0.0],"type":"VEC3"},{"bufferView":5,"byteOffset":0,"componentType":5125,"count":1884,"type":"SCALAR"}],"asset":{"generator":"VTK","version":"2.0"},"bufferViews":[{"buffer":0,"byteLength":614400,"byteOffset":0,"target":34962},{"buffer":1,"byteLength":409600,"byteOffset":0,"target":34962},{"buffer":2,"byteLength":921600,"byteOffset":0,"target":34963},{"buffer":3,"byteLength":271,"byteOffset":0,"target":34962},{"buffer":4,"byteLength":4176,"byteOffset":0,"target":34962},{"buffer":5,"byteLength":7536,"byteOffset":0,"target":34963}],"buffers":[{"byteLength":614400,"uri":"data:application/octet-stream;base64,"},{"byteLength":409600,"uri":"data:application/octet-stream;base64,"},{"byteLength":921600,"uri":"data:application/octet-stream;base64,"},{"byteLength":271,"uri":"data:application/octet-stream;base64,"},{"byteLength":4176,"uri":"data:application/octet-stream;base64,"},{"byteLength":7536,"uri":"data:application/octet-stream;base64,"}],"cameras":[{"perspective":{"aspectRatio":1.3333333333333333,"yfov":0.5235987755982988,"zfar":1000.01,"znear":0.01},"type":"perspective"}],"images":[{"bufferView":3,"mimeType":"image/png"}],"materials":[{"pbrMetallicRoughness":{"baseColorFactor":[0.6784313725490196,0.8470588235294118,0.9019607843137255,1.0],"baseColorTexture":{"index":0,"texCoord":0},"metallicFactor":0.0,"roughnessFactor":1.0}},{"pbrMetallicRoughness":{"baseColorFactor":[0.6784313725490196,0.8470588235294118,0.9019607843137255,1.0],"metallicFactor":0.0,"roughnessFactor":1.0}}],"meshes":[{"name":"mesh0","primitives":[{"attributes":{"POSITION":0,"TEXCOORD_0":1},"indices":2,"material":0,"mode":4}]},{"name":"mesh1","primitives":[{"attributes":{"POSITION":3},"indices":4,"material":1,"mode":4}]}],"nodes":[{"matrix":[2.2204460492503136e-16,-2.2204460492503126e-16,1.0,0.0,1.0,2.220446049250313e-16,-2.220446049250313e-16,0.0,-2.2204460492503126e-16,1.0,2.220446049250313e-16,0.0,0.0,0.0,0.0,1.0],"mesh":0,"name":"mesh0"},{"matrix":[2.2204460492503136e-16,-2.2204460492503126e-16,1.0,0.0,1.0,2.220446049250313e-16,-2.220446049250313e-16,0.0,-2.2204460492503126e-16,1.0,2.220446049250313e-16,0.0,0.0,0.0,0.0,1.0],"mesh":1,"name":"mesh1"},{"camera":0,"matrix":[1.0,-0.0,0.0,-0.0,-0.0,1.0,-0.0,0.0,0.0,-0.0,1.0,-0.0,-0.0,0.0,1.0,1.0],"name":"Camera Node"},{"children":[0,1,2],"name":"Renderer Node"}],"samplers":[{"magFilter":9728,"minFilter":9728,"wrapS":33071,"wrapT":33071}],"scene":0,"scenes":[{"name":"Layer 0","nodes":[3]}],"textures":[{"sampler":0,"source":0}]}